# xmcd
#
# Track frame offsets:
#	150
#	12423
#	28177
#	41714
#	53160
#	75386
#	89051
#	101109
#	110910
#	128629
#	145096
#	162615
#	175137
#	186453
#	198684
#
# Disc length: 2893 seconds
#
# Revision: 1
# Processed by: cddbd v1.5.2PL0 Copyright (c) Steve Scherf et al.
# Submitted via: audiograbber 1.83.01
#
DISCID=dd0b4b0f
DTITLE=The Troublemakers - Make Someone Happy Make Someone Smile
DYEAR=1900
DGENRE=Blues
TTITLE0=Let's Work Together
TTITLE1=Natural Born Lover
TTITLE2=Scott Joplin Rag
TTITLE3=Let Me Play With Your Pussy
TTITLE4=Out With The Wrong Woman
TTITLE5=Peg Leg Howell and Barbecue Bob
TTITLE6=Cumberland Gap
TTITLE7=Alabama Bound
TTITLE8=I'd Rather Be The Devil
TTITLE9=Early In The Morning
TTITLE10=Death Letter
TTITLE11=Shake That Boogie
TTITLE12=Floating Down To Cotton Town
TTITLE13=Bullfrog Blues
TTITLE14=Bottle Up and Go
EXTD=
EXTT0=
EXTT1=
EXTT2=
EXTT3=
EXTT4=
EXTT5=
EXTT6=
EXTT7=
EXTT8=
EXTT9=
EXTT10=
EXTT11=
EXTT12=
EXTT13=
EXTT14=
PLAYORDER=
